<svg width="32" height="33" viewBox="0 0 32 33" fill="none" xmlns="http://www.w3.org/2000/svg">
<rect x="0.5" y="5.73145" width="31" height="21.8571" rx="3.5" fill="white" stroke="#F5F5F5"/>
<mask id="mask0_2425_59785" style="mask-type:luminance" maskUnits="userSpaceOnUse" x="0" y="5" width="32" height="24">
<rect x="0.5" y="5.73145" width="31" height="21.8571" rx="3.5" fill="white" stroke="white"/>
</mask>
<g mask="url(#mask0_2425_59785)">
<path fill-rule="evenodd" clip-rule="evenodd" d="M0 28.0886H32V15.8981H0V28.0886Z" fill="#7CCCF5"/>
<path d="M15.142 17.3827L15.8111 16.2295V16.2295L15.142 17.3827ZM15.626 19.2052L14.4728 18.536V18.536L15.626 19.2052ZM13.8036 19.6893L13.1345 20.8425L13.1345 20.8425L13.8036 19.6893ZM18.3583 19.5907L19.0767 20.7139L18.3583 19.5907ZM16.5167 19.1858L15.3934 19.9042L15.3934 19.9042L16.5167 19.1858ZM16.9215 17.3442L17.6399 18.4674L16.9215 17.3442ZM15.6191 15.8981C15.6191 14.4254 14.4252 13.2315 12.9525 13.2315V15.8981H15.6191ZM15.8111 16.2295C15.692 16.1604 15.6191 16.0373 15.6191 15.8981H12.9525C12.9525 17.023 13.5623 18.0077 14.4728 18.536L15.8111 16.2295ZM16.7793 19.8743C17.5184 18.6005 17.085 16.9686 15.8111 16.2295L14.4728 18.536L16.7793 19.8743ZM13.1345 20.8425C14.4083 21.5817 16.0402 21.1482 16.7793 19.8743L14.4728 18.536V18.536L13.1345 20.8425ZM10.2858 15.8981C10.2858 18.0145 11.4376 19.8579 13.1345 20.8425L14.4728 18.536C13.5632 18.0082 12.9525 17.0241 12.9525 15.8981H10.2858ZM12.9525 13.2315C11.4797 13.2315 10.2858 14.4254 10.2858 15.8981H12.9525V13.2315ZM21.7144 15.8981C21.7144 14.4254 20.5205 13.2315 19.0477 13.2315V15.8981H21.7144ZM19.0767 20.7139C20.6567 19.7034 21.7144 17.9255 21.7144 15.8981H19.0477C19.0477 16.977 18.487 17.9256 17.6399 18.4674L19.0767 20.7139ZM15.3934 19.9042C16.1869 21.1449 17.836 21.5074 19.0767 20.7139L17.6399 18.4674V18.4674L15.3934 19.9042ZM16.2031 16.2209C14.9624 17.0144 14.5999 18.6635 15.3934 19.9042L17.6399 18.4674L16.2031 16.2209ZM16.381 15.8981C16.381 16.0317 16.3145 16.1497 16.2031 16.2209L17.6399 18.4674C18.4878 17.9251 19.0477 16.9761 19.0477 15.8981H16.381ZM19.0477 13.2315C17.575 13.2315 16.381 14.4254 16.381 15.8981H19.0477H19.0477V13.2315Z" fill="#445F42"/>
<ellipse cx="16.0004" cy="15.1362" rx="1.52381" ry="2.28571" fill="#D89F3D"/>
</g>
</svg>
