<svg width="76" height="76" viewBox="0 0 76 76" fill="none" xmlns="http://www.w3.org/2000/svg">
<path d="M21.1016 72.9483C21.7358 73.5825 22.0528 73.8996 22.4229 74.1263C22.7509 74.3273 23.1086 74.4755 23.4827 74.5653C23.9047 74.6666 24.3531 74.6666 25.25 74.6666H50.7499C51.6467 74.6666 52.0951 74.6666 52.5171 74.5653C52.8912 74.4755 53.2489 74.3273 53.577 74.1263C53.947 73.8996 54.2641 73.5825 54.8982 72.9483L72.9483 54.8983C73.5824 54.2641 73.8995 53.947 74.1263 53.577C74.3273 53.2489 74.4754 52.8913 74.5653 52.5171C74.6666 52.0952 74.6666 51.6467 74.6666 50.7499V25.25C74.6666 24.3532 74.6666 23.9048 74.5653 23.4828C74.4754 23.1086 74.3273 22.751 74.1263 22.4229C73.8995 22.0529 73.5824 21.7358 72.9483 21.1017L54.8982 3.05161C54.2641 2.41745 53.947 2.10036 53.577 1.87361C53.2489 1.67258 52.8912 1.52443 52.5171 1.43461C52.0951 1.3333 51.6467 1.3333 50.7499 1.3333H25.25C24.3531 1.3333 23.9047 1.3333 23.4827 1.43461C23.1086 1.52443 22.7509 1.67258 22.4229 1.87361C22.0528 2.10036 21.7358 2.41745 21.1016 3.05161L3.05156 21.1017C2.4174 21.7358 2.10032 22.0529 1.87357 22.4229C1.67253 22.751 1.52438 23.1086 1.43456 23.4828C1.33325 23.9048 1.33325 24.3532 1.33325 25.25V50.7499C1.33325 51.6467 1.33325 52.0952 1.43456 52.5171C1.52438 52.8913 1.67253 53.2489 1.87357 53.577C2.10032 53.947 2.4174 54.2641 3.05156 54.8983L21.1016 72.9483Z" fill="#E8AB02"/>
<path d="M37.9999 23.3333V38M37.9999 52.6666H38.0366M1.33325 50.7499V25.25C1.33325 24.3532 1.33325 23.9048 1.43456 23.4828C1.52438 23.1086 1.67253 22.751 1.87357 22.4229C2.10032 22.0529 2.4174 21.7358 3.05156 21.1017L21.1016 3.05161C21.7358 2.41745 22.0528 2.10037 22.4229 1.87362C22.7509 1.67258 23.1086 1.52443 23.4827 1.43461C23.9047 1.33329 24.3531 1.3333 25.25 1.3333H50.7499C51.6467 1.3333 52.0951 1.33329 52.5171 1.43461C52.8912 1.52443 53.2489 1.67258 53.577 1.87362C53.947 2.10037 54.2641 2.41745 54.8982 3.05161L72.9483 21.1017C73.5824 21.7358 73.8995 22.0529 74.1263 22.4229C74.3273 22.751 74.4755 23.1086 74.5653 23.4828C74.6666 23.9048 74.6666 24.3532 74.6666 25.25V50.7499C74.6666 51.6467 74.6666 52.0952 74.5653 52.5171C74.4755 52.8913 74.3273 53.2489 74.1263 53.577C73.8995 53.947 73.5824 54.2641 72.9483 54.8983L54.8982 72.9483C54.2641 73.5825 53.947 73.8996 53.577 74.1263C53.2489 74.3273 52.8912 74.4755 52.5171 74.5653C52.0951 74.6666 51.6467 74.6666 50.7499 74.6666H25.25C24.3531 74.6666 23.9047 74.6666 23.4827 74.5653C23.1086 74.4755 22.7509 74.3273 22.4229 74.1263C22.0528 73.8996 21.7358 73.5825 21.1016 72.9483L3.05156 54.8983C2.4174 54.2641 2.10032 53.947 1.87357 53.577C1.67253 53.2489 1.52438 52.8913 1.43456 52.5171C1.33325 52.0952 1.33325 51.6467 1.33325 50.7499Z" stroke="#F9FAFB" stroke-width="2" stroke-linecap="round" stroke-linejoin="round"/>
</svg>
